<svg width="128" height="128" viewBox="0 0 128 128" fill="none" xmlns="http://www.w3.org/2000/svg">
  <circle cx="64" cy="64" r="64" fill="#003224"/>
  <path d="M98 42c0-8.5-8-14-20-14-22 0-42 24-42 46 0 5 2 11 6 15-10 7-16 20-16 34 0 22 18 36 40 36 26 0 46-22 46-46 0-13-8-23-18-30 8-6 13-16 13-25-1 0-9-16-9-16zm-31 92c-15 0-26-9-26-22 0-13 10-28 22-34 7 15 11 31 5 49 0 3-1 7-1 7zm22-68c-7 0-13-7-13-18 0-15 10-33 22-33 7 0 13 7 13 18 0 20-10 33-22 33z" fill="white" transform="translate(4, -10) scale(0.9)"/>
</svg>
