<svg width="128" height="128" viewBox="0 0 128 128" fill="none" xmlns="http://www.w3.org/2000/svg">
  <circle cx="64" cy="64" r="64" fill="#003224"/>
  <path d="M94 42.5c0-6-5-10.5-13.5-10.5-16 0-32 20-32 37.5 0 3 1.5 5.5 4.5 7-6 3-10.5 10-10.5 19.5 0 14 13.5 22.5 28.5 22.5 17 0 32-15 32-33 0-6.5-4-12-10-14.5 6-4 9.5-10 9.5-16.5 0-5-2.5-10-9-12.5zM72.5 91.5c-7 0-13-5.5-13-13.5 0-6.5 4.5-14.5 12-17.5 3 6.5 5.5 15.5 1 31zm10.5-42.5c-4.5 0-7.5-3.5-8.5-7.5-2.5-7-.5-16.5 7.5-19.5 4-1.5 7.5 0 7.5 5 0 5-2 13-6.5 22z" fill="white"/>
</svg>
